<svg version="1.1" xmlns="http://www.w3.org/2000/svg" xmlns:xlink="http://www.w3.org/1999/xlink" preserveAspectRatio="xMidYMid meet" viewBox="   "><g data-item-type="text" data-item="Business" id="logo__item--business" class="logo__item">
                <g class="logo__item__inner" transform="translate(330.53125 272.0317416316831) scale(1 1) rotate(0 0 0)">
                    <text data-part-id="logo__item--business" dy="0" dominant-baseline="auto" alignment-baseline="auto" font-family="Montserrat" font-size="32px" fill="#035BA9" letter-spacing="0" font-weight="bold" font-style="normal" data-font-family="Montserrat" data-font-weight="bold" data-font-style="normal" data-ttf-url="/builder_assets/fontsttf/font-montserrat-bold-normal.ttf">Kaufman &amp; Associates</text>
                </g>
            </g><g data-item-type="image" data-item="Image" data-logo-item="" id="logo__item--logo_0" class="logo__item">
    <g class="logo__item__inner" transform="translate(246.3022491325779 199) scale(0.8296398238657962 0.8296398238657962) rotate(0 0 0)">
        
<g>
	<polygon fill="#035BA9" points="86.867,57.948 87.026,29.095 47.709,9.117 47.709,93.146 94.001,93.146 94.001,59.853" data-part-id="logo__item--logo_0__0"></polygon>
	<polygon fill="#FFFFFF" points="62.326,29.056 52.643,27.477 52.643,19.274 62.326,21.098" data-part-id="logo__item--logo_0__1"></polygon>
	<polygon fill="#FFFFFF" points="62.326,39.71 52.643,38.616 52.643,30.411 62.326,32.235" data-part-id="logo__item--logo_0__2"></polygon>
	<polygon fill="#FFFFFF" points="62.326,49.755 52.643,49.574 52.643,41.37 62.326,42.278" data-part-id="logo__item--logo_0__3"></polygon>
	<polygon fill="#FFFFFF" points="89.267,70.548 79.584,68.971 79.584,60.767 89.267,62.588" data-part-id="logo__item--logo_0__4"></polygon>
	<polygon fill="#FFFFFF" points="89.267,81.2 79.584,80.105 79.584,71.905 89.267,73.728" data-part-id="logo__item--logo_0__5"></polygon>
	<polygon fill="#FFFFFF" points="89.267,91.245 79.584,91.063 79.584,82.859 89.267,83.771" data-part-id="logo__item--logo_0__6"></polygon>
	<g>
		<polygon fill="#A6A8AB" points="35.113,13.658 30.821,15.543 30.821,93.146 35.113,93.146" data-part-id="logo__item--logo_0__7"></polygon>
		<polygon fill="#A6A8AB" points="18.75,22.003 14.465,23.887 14.465,93.146 18.75,93.146" data-part-id="logo__item--logo_0__8"></polygon>
	</g>
	<g>
		<polygon fill="#035BA9" points="43.688,9.117 39.399,11.003 39.399,93.146 43.688,93.146" data-part-id="logo__item--logo_0__9"></polygon>
		<polygon fill="#035BA9" points="26.766,17.848 22.477,19.734 22.477,93.146 26.766,93.146" data-part-id="logo__item--logo_0__10"></polygon>
		<polygon fill="#035BA9" points="10.3,25.951 6.011,27.837 6.011,93.146 10.3,93.146" data-part-id="logo__item--logo_0__11"></polygon>
	</g>
</g>

    </g>
</g></svg>